<svg width="608" height="160" viewBox="0 0 608 160" fill="none" xmlns="http://www.w3.org/2000/svg">
<g clip-path="url(#clip0)">
<path d="M33.76 52.45L25.6 49.82C9.65999 44.67 2.25999 36.64 2.25999 24.22C2.25999 8.53 14.81 0 33.38 0C43.92 0 51.95 2.76 59.86 7.15V18.82C52.58 7.78 43.29 3.51 32.12 3.51C20.2 3.51 9.15999 8.28 9.15999 22.46C9.15999 34.26 18.95 40.03 28.86 43.29L37.14 46.05C49.19 50.07 64.87 55.46 64.87 74.16C64.87 91.1 52.45 102.77 31.49 102.77C19.19 102.77 8.77999 100.01 -0.0100098 94.61V82.95C8.64999 95.5 19.44 99.14 31.74 99.14C47.43 99.14 57.72 89.85 57.72 76.8C57.72 63.5 50.07 57.72 33.76 52.45Z" fill="black"/>
<path d="M148.33 101.02L95.5001 50.57L146.07 2.26001H151.97L103.53 48.31L158.24 101.01H148.33V101.02ZM95.3701 101.02H87.8401V2.26001H95.3701V101.02Z" fill="black"/>
<path d="M237.93 2.26001L204.05 60.61V101.02H196.52V60.61L162.26 2.26001H170.29L201.79 56.84L233.28 2.26001H237.93Z" fill="black"/>
<path d="M258.01 101.02V2.26001H317.24V5.65001H265.54V48.69H312.47V52.08H265.54V101.02H258.01Z" fill="black"/>
<path d="M381.49 3.64C361.54 3.64 337.32 17.07 337.32 51.45C337.32 85.58 361.54 99.14 381.49 99.14C401.44 99.14 425.66 85.59 425.66 51.45C425.66 17.07 401.44 3.64 381.49 3.64ZM381.49 102.77C351.37 102.77 328.91 82.31 328.91 51.07C328.91 19.83 351.37 0 381.49 0C411.61 0 434.07 20.58 434.07 51.83C434.07 83.07 411.61 102.77 381.49 102.77Z" fill="black"/>
<path d="M451.52 2.26001L483.39 43.92L516.27 2.26001H521.79L486.15 47.43L527.18 101.02H518.28L481.63 53.08L443.74 101.02H438.21L478.87 49.57L442.61 2.26001H451.52Z" fill="black"/>
<path d="M603.36 2.26001L571.86 56.84L540.36 2.26001H532.33L566.59 60.61V101.02H574.12V60.61L608 2.26001H603.36Z" fill="black"/>
<path d="M192.62 133.93H194.96V152.66C194.96 157.38 191.57 159.72 187.69 159.72C183.39 159.72 180.39 157.13 180.39 152.03H182.56C182.67 156.22 184.9 157.8 187.7 157.8C189.8 157.8 192.63 156.75 192.63 152.63V133.93H192.62Z" fill="black"/>
<path d="M207.96 133.93V159.27H224.21V157.1H210.3V147.25H223.37V145.05H210.3V136.1H224.21V133.93H207.96Z" fill="black"/>
<path d="M261.98 133.93L255.66 156.19L249.96 133.93H247.34L241.82 156.19L235.36 133.93H232.77L240.39 159.27H243.08L248.63 138.02L254.23 159.27H256.92L264.5 133.93H261.98Z" fill="black"/>
<path d="M274.84 133.93V159.27H291.09V157.1H277.18V147.25H290.25V145.05H277.18V136.1H291.09V133.93H274.84Z" fill="black"/>
<path d="M302.3 133.93V159.27H318.06V157.1H304.65V133.93H302.3Z" fill="black"/>
<path d="M328.06 133.93V159.27H343.82V157.1H330.4V133.93H328.06Z" fill="black"/>
<path d="M353.81 133.93V159.27H370.06V157.1H356.15V147.25H369.22V145.05H356.15V136.1H370.06V133.93H353.81Z" fill="black"/>
<path d="M383.62 136.07V145.96H389.04C393.23 145.96 396.62 145.44 396.62 140.96C396.62 136.49 393.23 136.07 389.04 136.07H383.62ZM390.85 148.02C390.53 148.06 390.19 148.09 389.8 148.09H383.61V159.27H381.27V133.93H388.71C394.75 133.93 399.05 135.01 399.05 140.88C399.05 145.14 396.81 147.06 393.28 147.73L399.43 159.26H396.81L390.85 148.02Z" fill="black"/>
<path d="M424.92 133.93L417.06 147.35L409.44 133.93H406.82L415.8 149.69V159.27H418.14V149.76L427.61 133.93H424.92Z" fill="black"/>
</g>
<defs>
<clipPath id="clip0">
<rect width="608" height="159.72" fill="white"/>
</clipPath>
</defs>
</svg>
