<svg width="269" height="280" viewBox="0 0 269 280" fill="none" xmlns="http://www.w3.org/2000/svg">
<g clip-path="url(#clip0)">
<path d="M268.09 188.76C267.76 184.52 267.49 181.93 267.24 180.63C266.74 177.96 265.76 173.1 264.87 170.49C249.92 126.18 213.32 116.7 198.28 114.69C171.36 111.07 154.09 114.85 147.22 116.94C144.4 107.02 145.07 98.98 149.22 93.58C153.08 88.54 159.88 85.98 168.02 86.53C178.8 87.24 188.53 82.16 193.61 73.2L196.72 67.71L195 63.09C150.49 47.19 120.17 17.36 106.06 0.99L105.21 0L100.17 0.32C90.68 13.98 95.74 28.42 101.02 36.2C89.63 44.72 49.52 79.95 67.58 141.44L68.49 144.54L73.68 139.35C54.48 73.4 105.14 41 107.31 39.65L108.04 34.8C107.54 34.22 96.8 21.57 103.34 7.66C118.25 24.42 147.43 51.97 189.25 67.84L188 70.04C184.16 76.81 176.76 80.68 168.46 80.12C158.22 79.44 149.31 82.89 144.11 89.67C139.96 95.08 136.25 105.1 142.1 122.12L146.4 124.04C146.58 123.97 164.46 116.68 197.42 121.09C211.27 122.95 244.97 131.69 258.76 172.58C259.3 174.19 260.11 177.66 260.9 181.85C261.15 183.18 261.42 186.23 261.66 189.29C262.23 196.68 261.88 203.81 260.63 210.5C260.39 211.78 260.14 212.93 259.86 213.89C239.76 285.2 171.32 275.96 142.84 268.67C135.93 266.9 127.76 263.56 119.12 260.03C89.89 248.07 50.16 231.83 14.89 260.07C11.97 254.33 6.52002 241.68 6.43002 227.27C6.30002 207.23 16.89 181.6 46.97 169.76C56.85 165.88 68.11 164.45 79.58 165.58C90.79 166.71 102.9 169.08 115.57 172.6C132.95 177.43 148.08 183.1 161.49 188.12C189.21 198.5 212.79 207.28 243.04 204.78L245.16 204.61L239.14 198.59C211.78 200.08 189.73 191.81 163.68 182.06C150.21 177.01 134.94 171.3 117.29 166.4C104.28 162.78 91.8 160.34 80.22 159.18C67.74 157.94 55.44 159.52 44.62 163.78C11.51 176.76 -0.139976 205.1 2.41e-05 227.27C0.140024 248.75 10.79 266.02 11.24 266.74L16.1 267.44C49.11 238.31 86.58 253.64 116.69 265.95C125.54 269.57 133.91 272.99 141.25 274.86C149.12 276.87 163.1 279.72 179.08 279.72C211.14 279.72 251.22 268.26 266.06 215.6C266.38 214.48 266.68 213.13 266.96 211.64C268.33 204.41 268.71 196.71 268.09 188.76Z" fill="black"/>
</g>
<defs>
<clipPath id="clip0">
<rect width="268.38" height="279.74" fill="white"/>
</clipPath>
</defs>
</svg>
